<svg width="20" height="21" viewBox="0 0 20 21" fill="none" xmlns="http://www.w3.org/2000/svg">
<g clip-path="url(#clip0_191_2646)">
<path d="M12.4 14.1L16.4993 13.5L15.4985 17L11.8 17.7L12.4 14.1Z" fill="#9FCEFF"/>
<path d="M3.5 5C3.5 3.89543 4.39543 3 5.5 3H14.5C15.6046 3 16.5 3.89543 16.5 5V14C16.5 16.2091 14.7091 18 12.5 18H5.5C4.39543 18 3.5 17.1046 3.5 16V5Z" stroke="#409EFF"/>
<path d="M16 13.5H13.8001C12.6955 13.5 11.8 14.3954 11.8 15.5V17.7" stroke="#409EFF"/>
<path d="M6 6H14M6 9H14M6 12H9.6" stroke="#409EFF"/>
</g>
<defs>
<clipPath id="clip0_191_2646">
<rect width="20" height="20" fill="white" transform="translate(0 0.5)"/>
</clipPath>
</defs>
</svg>
