<svg width="20" height="20" viewBox="0 0 20 20" fill="none" xmlns="http://www.w3.org/2000/svg">
<path d="M16 10L10 9V15.5H12C13 15.5 14 16 14 16L16 10Z" fill="#BBC3D7"/>
<path d="M10 8.75734L6 9.5M10 8.75734L14 9.5M10 8.75734V15.5309M6 9.5L4 10L6 16C7.66667 16.3096 8.83333 15.7631 10 15.5309M6 9.5V6.18933C6 5.63705 6.44772 5.18933 7 5.18933H10M14 9.5L16 10L14 16C12.3333 15.3809 11.1667 15.2988 10 15.5309M14 9.5V6.18933C14 5.63705 13.5523 5.18933 13 5.18933H10M10 5.18933V4" stroke="#1C3879"/>
</svg>
