<svg width="20" height="21" viewBox="0 0 20 21" fill="none" xmlns="http://www.w3.org/2000/svg">
<g clip-path="url(#clip0_191_4209)">
<path d="M16 9.5H4V12.5C4 13.6046 4.89543 14.5 6 14.5H13.323C13.7319 14.5 14.0996 14.251 14.2514 13.8714L16 9.5Z" fill="#F2D09D"/>
<path d="M2 3.30005H3.37667C3.92895 3.30005 4.37667 3.74776 4.37667 4.30005V6.96672M4.37667 6.96672V13.3C4.37667 13.8523 4.82438 14.3 5.37667 14.3H12.5519C13.3053 14.3 13.9948 13.8767 14.3356 13.2048L17.5 6.96672H4.37667Z" stroke="#E6A23C"/>
<circle cx="5.5" cy="16.8" r="1.5" stroke="#E6A23C"/>
<circle cx="13.9004" cy="16.8" r="1.5" stroke="#E6A23C"/>
</g>
<defs>
<clipPath id="clip0_191_4209">
<rect width="20" height="20" fill="white" transform="translate(0 0.5)"/>
</clipPath>
</defs>
</svg>
